 <svg  version="1.0" xmlns="http://www.w3.org/2000/svg"  width="300.000000pt" height="148.000000pt" viewBox="0 0 300.000000 148.000000"  preserveAspectRatio="xMidYMid meet">  <g transform="translate(0.000000,148.000000) scale(0.100000,-0.100000)" fill="#b0038a" stroke="none"> <path d="M1366 1330 c-197 -31 -373 -112 -497 -227 l-46 -43 -6 29 c-4 17 -15 35 -26 40 -28 16 -56 -14 -70 -74 -39 -165 -125 -252 -299 -300 -66 -19 -89 -43 -72 -75 5 -8 49 -27 98 -42 146 -45 221 -119 263 -262 40 -132 83 -141 119 -23 28 91 61 155 97 188 46 43 106 79 130 79 20 0 21 -3 13 -26 -13 -34 -13 -173 0 -211 6 -17 22 -35 36 -42 36 -16 116 -14 142 5 21 15 25 15 41 0 13 -12 37 -15 104 -13 48 1 87 5 87 10 0 4 -4 5 -10 2 -6 -3 -7 1 -4 10 4 9 9 14 12 11 2 -3 12 -1 22 4 23 12 33 1 18 -19 -9 -12 -7 -11 8 2 12 10 28 15 38 11 14 -5 15 -1 12 30 -6 41 17 52 28 14 9 -37 7 -46 -13 -53 -10 -3 -21 -15 -24 -27 -5 -16 -11 -19 -31 -14 -14 3 -60 -3 -103 -14 -163 -42 -332 -51 -493 -26 -47 7 -91 11 -98 8 -7 -2 -15 -16 -19 -30 -5 -19 0 -30 18 -45 42 -35 187 -98 287 -124 86 -23 116 -26 262 -26 147 0 176 3 265 26 160 43 369 157 420 230 14 20 14 20 20 1 12 -37 22 -49 45 -52 31 -5 37 4 60 87 26 92 49 138 92 180 47 46 106 79 189 104 126 39 120 75 -19 122 -145 49 -205 109 -256 255 -48 140 -83 147 -121 24 -29 -94 -60 -150 -102 -187 -64 -57 -65 -57 -97 -32 l-29 23 32 27 c42 36 61 75 61 123 0 48 -8 52 -96 52 -43 0 -66 -4 -68 -12 -3 -7 -8 -26 -12 -43 l-8 -30 -5 40 -6 40 -88 3 c-83 3 -89 1 -94 -18 -5 -20 -6 -20 -25 -3 -28 25 -155 31 -197 10 -22 -11 -31 -12 -31 -4 0 16 92 51 205 79 73 18 120 22 250 22 88 1 192 -3 232 -8 67 -8 72 -7 82 13 19 34 -1 55 -101 105 -136 67 -262 97 -428 101 -74 2 -162 0 -194 -5z m317 -45 c53 -8 131 -26 172 -40 79 -26 220 -93 213 -100 -2 -3 -36 2 -74 10 -89 19 -293 19 -409 0 -97 -16 -198 -47 -286 -89 -38 -17 -73 -26 -107 -26 -41 0 -54 -4 -66 -22 -12 -17 -16 -19 -16 -6 0 22 -21 28 -100 28 -95 0 -100 -3 -100 -61 0 -66 19 -109 66 -147 50 -41 39 -51 -14 -12 -44 31 -85 89 -110 153 -15 37 -15 38 19 73 84 88 225 168 366 209 155 45 287 54 446 30z m-885 -260 c30 -122 99 -217 192 -265 33 -17 35 -21 32 -62 -3 -40 -7 -45 -54 -73 -92 -55 -150 -147 -183 -290 -7 -29 -8 -27 -21 25 -21 80 -70 175 -112 216 -46 45 -129 88 -205 105 -31 8 -57 17 -57 20 0 4 20 10 44 13 61 10 174 67 220 112 45 45 90 133 107 211 14 61 20 59 37 -12z m1369 -11 c35 -137 113 -232 225 -277 37 -15 85 -30 108 -33 49 -8 44 -20 -13 -28 -60 -9 -157 -57 -208 -103 -45 -40 -105 -151 -115 -213 -11 -66 -16 -65 -38 10 -12 41 -34 96 -49 122 -26 44 -108 128 -124 128 -5 0 -8 32 -8 70 0 39 3 70 6 70 3 0 27 18 53 41 56 49 110 143 127 222 7 31 14 55 16 53 3 -2 11 -30 20 -62z m-1079 -70 c-2 -53 0 -68 14 -77 12 -8 21 -7 33 3 14 12 16 25 11 77 l-7 63 82 0 82 0 -6 -36 c-11 -69 -56 -112 -127 -121 -50 -7 -53 -30 -10 -87 17 -22 30 -50 30 -63 0 -22 -3 -23 -75 -23 -66 0 -75 2 -75 19 0 10 11 33 25 52 51 70 54 99 9 99 -32 0 -73 21 -100 52 -19 21 -44 77 -44 99 0 5 36 9 81 9 l80 0 -3 -66z m442 56 c40 -21 53 -117 20 -150 -17 -17 -33 -20 -108 -20 -93 0 -104 -3 -95 -26 7 -19 173 -20 191 -2 17 17 32 -6 32 -49 0 -56 -27 -73 -118 -73 -90 0 -115 12 -132 65 -12 38 -6 90 13 102 7 5 55 10 107 13 76 4 95 8 95 20 0 12 -17 16 -83 18 -53 2 -89 -1 -98 -9 -11 -9 -16 -6 -25 14 -13 29 -6 69 17 91 18 18 153 23 184 6z m205 -17 c-3 -16 -15 -37 -25 -48 -22 -23 -43 -75 -31 -75 12 0 84 50 98 69 7 9 15 31 19 49 l6 32 64 0 63 0 -11 -30 c-14 -43 -73 -88 -143 -109 l-60 -19 40 -7 c76 -14 165 -79 165 -120 0 -7 3 -20 6 -29 5 -14 -4 -16 -60 -16 -62 0 -66 1 -66 23 0 33 -33 81 -74 106 -54 34 -60 22 -21 -39 53 -83 50 -90 -40 -90 -67 0 -75 2 -75 19 0 10 9 30 20 44 56 71 58 136 6 198 -14 17 -26 39 -26 50 0 17 8 19 76 19 l76 0 -7 -27z m-105 -152 c0 -9 -8 -27 -17 -40 -15 -23 -17 -23 -23 -5 -4 10 -5 39 -2 64 l4 44 19 -23 c11 -13 19 -31 19 -40z m-326 22 c-5 -10 -9 -53 -9 -95 0 -71 2 -80 28 -105 25 -25 35 -28 111 -31 52 -3 92 1 106 8 16 9 25 9 33 1 6 -6 47 -11 94 -11 71 0 84 3 93 19 7 14 6 21 -3 24 -6 2 0 4 15 4 15 0 29 -6 33 -14 4 -11 1 -13 -11 -9 -10 4 -14 1 -12 -6 3 -7 23 -14 46 -16 23 -2 42 -7 42 -11 0 -4 -15 -29 -32 -57 -32 -47 -33 -48 -36 -22 -7 55 -96 88 -154 57 -15 -8 -26 -8 -42 0 -18 10 -48 10 -201 2 -5 -1 -26 2 -46 5 -20 3 -46 1 -57 -5 -17 -9 -21 -7 -26 15 -4 13 -17 30 -30 35 -18 9 -25 22 -30 59 -4 26 -13 53 -21 60 -23 19 -18 28 29 49 25 11 51 29 58 40 16 25 34 28 22 4z m-251 -33 c16 -14 2 -45 -21 -48 -17 -3 -20 0 -16 13 4 9 -2 25 -12 36 -18 20 -18 20 11 13 17 -3 34 -10 38 -14z m874 -190 c1 -11 -4 -20 -12 -20 -8 0 -19 -8 -24 -17 -9 -16 -10 -16 -11 4 0 12 -10 29 -22 37 -22 16 -21 16 23 16 38 0 45 -3 46 -20z m-677 -30 c18 -33 -6 -91 -25 -60 -8 13 -81 13 -106 0 -21 -12 -25 -40 -7 -58 15 -15 115 -16 124 0 14 23 25 -33 11 -61 -11 -23 -19 -26 -68 -29 -79 -4 -93 13 -93 118 0 101 8 110 90 110 53 0 65 -3 74 -20z m734 -53 c29 -29 64 -76 77 -105 13 -29 28 -52 32 -52 12 0 -68 -76 -128 -121 -268 -201 -703 -231 -1026 -68 -83 41 -99 57 -38 38 65 -20 317 -23 428 -5 96 16 241 59 292 86 13 8 47 12 74 11 65 -2 105 25 105 72 0 23 14 48 51 92 27 33 52 70 55 83 4 12 10 22 16 22 5 0 33 -24 62 -53z m-384 13 c24 -24 24 -30 6 -56 -12 -15 -17 -17 -27 -6 -14 13 -47 16 -73 6 -25 -10 -19 -41 14 -64 49 -35 40 -50 -30 -50 -65 0 -76 12 -40 45 11 10 20 30 20 45 0 15 -9 35 -20 45 -31 28 -25 45 16 45 23 0 33 -4 28 -11 -3 -6 7 -4 22 5 39 21 60 20 84 -4z m154 -1 c14 -11 26 -29 26 -39 0 -39 -67 -62 -115 -39 -15 7 -11 8 18 5 42 -5 70 1 61 15 -8 14 -68 11 -90 -5 -38 -29 15 -46 101 -34 16 2 19 -2 17 -22 -3 -33 -28 -50 -72 -50 -53 0 -75 28 -74 93 0 42 5 54 28 74 34 28 65 29 100 2z m-348 -10 c29 -32 26 -115 -5 -140 -35 -28 -85 -25 -110 7 -28 36 -28 102 -1 132 28 30 90 30 116 1z m282 -182 c26 3 45 4 42 1 -3 -3 -26 -9 -52 -12 -42 -6 -48 -5 -47 11 0 10 3 13 6 6 3 -9 19 -11 51 -6z"/> <path d="M1290 490 c-13 -9 -13 -11 0 -20 8 -5 33 -10 55 -10 22 0 47 5 55 10 13 9 13 11 0 20 -8 5 -33 10 -55 10 -22 0 -47 -5 -55 -10z"/> </g> </svg> 